<?xml version="1.0" encoding="utf-8"?>
<!-- Generator: Adobe Illustrator 15.1.0, SVG Export Plug-In  -->
<!DOCTYPE svg PUBLIC "-//W3C//DTD SVG 1.1//EN" "http://www.w3.org/Graphics/SVG/1.1/DTD/svg11.dtd" [
	<!ENTITY ns_flows "http://ns.adobe.com/Flows/1.0/">
]>
<svg version="1.1"
	 xmlns="http://www.w3.org/2000/svg" xmlns:xlink="http://www.w3.org/1999/xlink" xmlns:a="http://ns.adobe.com/AdobeSVGViewerExtensions/3.0/"
	 x="0px" y="0px" width="25px" height="50px" viewBox="-0.5 -0.979 25 50"
	 overflow="visible" enable-background="new -0.5 -0.979 25 50" xml:space="preserve">
<defs>
</defs>
<path fill="none" stroke="#B3B3B3" stroke-linejoin="round" stroke-miterlimit="10" d="M11.875,24.5
	C5.602,24.5,0.5,29.604,0.5,35.875S5.602,47.25,11.875,47.25c6.271,0,11.375-5.104,11.375-11.375S18.146,24.5,11.875,24.5z"/>
<polyline fill="none" stroke="#B3B3B3" stroke-linejoin="round" stroke-miterlimit="10" points="10.998,28.177 14.426,31.779 
	17.875,35.378 14.436,38.976 10.998,42.571 "/>
<line fill="none" stroke="#B3B3B3" stroke-linejoin="round" stroke-miterlimit="10" x1="18" y1="35.521" x2="5" y2="35.521"/>
<path fill="#00FFD4" stroke="#00FFD4" stroke-linejoin="round" stroke-miterlimit="10" d="M11.875,0.5
	C5.602,0.5,0.5,5.604,0.5,11.875S5.602,23.25,11.875,23.25c6.271,0,11.375-5.104,11.375-11.375S18.146,0.5,11.875,0.5z"/>
<polyline fill="none" stroke="#FFFFFF" stroke-linejoin="round" stroke-miterlimit="10" points="10.998,4.177 14.426,7.779 
	17.875,11.378 14.436,14.976 10.998,18.571 "/>
<line fill="none" stroke="#FFFFFF" stroke-linejoin="round" stroke-miterlimit="10" x1="18" y1="11.521" x2="5" y2="11.521"/>
<polyline fill="none" stroke="#FFFFFF" stroke-linejoin="round" stroke-miterlimit="10" points="10.998,4.177 14.426,7.779 
	17.875,11.378 14.436,14.976 10.998,18.571 "/>
</svg>
