<?xml version="1.0" encoding="utf-8"?>
<!-- Generator: Adobe Illustrator 15.1.0, SVG Export Plug-In  -->
<!DOCTYPE svg PUBLIC "-//W3C//DTD SVG 1.1//EN" "http://www.w3.org/Graphics/SVG/1.1/DTD/svg11.dtd" [
	<!ENTITY ns_flows "http://ns.adobe.com/Flows/1.0/">
]>
<svg version="1.1"
	 xmlns="http://www.w3.org/2000/svg" xmlns:xlink="http://www.w3.org/1999/xlink" xmlns:a="http://ns.adobe.com/AdobeSVGViewerExtensions/3.0/"
	 x="0px" y="0px" width="25px" height="50px" viewBox="-0.5 -0.979 25 50"
	 overflow="visible" enable-background="new -0.5 -0.979 25 50" xml:space="preserve">
<defs>
</defs>
<path fill="none" stroke="#B3B3B3" stroke-linejoin="round" stroke-miterlimit="10" d="M11.877,47.25
	c6.271,0,11.373-5.104,11.373-11.375S18.148,24.5,11.877,24.5C5.604,24.5,0.5,29.604,0.5,35.875S5.604,47.25,11.877,47.25z"/>
<polyline fill="none" stroke="#B3B3B3" stroke-linejoin="round" stroke-miterlimit="10" points="12.752,42.573 9.324,38.971 
	5.875,35.372 9.314,31.774 12.752,28.179 "/>
<line fill="none" stroke="#B3B3B3" stroke-linejoin="round" stroke-miterlimit="10" x1="6" y1="35.521" x2="19" y2="35.521"/>
<path fill="#00FFD4" stroke="#00FFD4" stroke-linejoin="round" stroke-miterlimit="10" d="M11.877,23.25
	c6.271,0,11.373-5.104,11.373-11.375S18.148,0.5,11.877,0.5C5.604,0.5,0.5,5.604,0.5,11.875S5.604,23.25,11.877,23.25z"/>
<polyline fill="none" stroke="#FFFFFF" stroke-linejoin="round" stroke-miterlimit="10" points="12.752,18.573 9.324,14.971 
	5.875,11.372 9.314,7.774 12.752,4.179 "/>
<line fill="none" stroke="#FFFFFF" stroke-linejoin="round" stroke-miterlimit="10" x1="6" y1="11.521" x2="19" y2="11.521"/>
<polyline fill="none" stroke="#FFFFFF" stroke-linejoin="round" stroke-miterlimit="10" points="12.752,18.573 9.324,14.971 
	5.875,11.372 9.314,7.774 12.752,4.179 "/>
</svg>
