<?xml version="1.0" encoding="utf-8"?>
<!-- Generator: Adobe Illustrator 15.1.0, SVG Export Plug-In  -->
<!DOCTYPE svg PUBLIC "-//W3C//DTD SVG 1.1//EN" "http://www.w3.org/Graphics/SVG/1.1/DTD/svg11.dtd" [
	<!ENTITY ns_flows "http://ns.adobe.com/Flows/1.0/">
]>
<svg version="1.1"
	 xmlns="http://www.w3.org/2000/svg" xmlns:xlink="http://www.w3.org/1999/xlink" xmlns:a="http://ns.adobe.com/AdobeSVGViewerExtensions/3.0/"
	 x="0px" y="0px" width="50px" height="100px" viewBox="-1 -1.729 50 100"
	 overflow="visible" enable-background="new -1 -1.729 50 100" xml:space="preserve">
<defs>
</defs>
<path fill="none" stroke="#B3B3B3" stroke-linejoin="round" stroke-miterlimit="10" d="M24.002,96.5
	C36.959,96.5,47.5,85.958,47.5,73c0-12.958-10.541-23.5-23.498-23.5C11.043,49.5,0.5,60.042,0.5,73
	C0.5,85.958,11.043,96.5,24.002,96.5z"/>
<polyline fill="none" stroke="#B3B3B3" stroke-linejoin="round" stroke-miterlimit="10" points="25.812,86.837 18.73,79.911 
	11.604,72.993 18.709,66.078 25.812,59.164 "/>
<line fill="none" stroke="#B3B3B3" stroke-linejoin="round" stroke-miterlimit="10" x1="12" y1="72.771" x2="38" y2="72.771"/>
<path fill="#00FFD4" stroke="#00FFD4" stroke-linejoin="round" stroke-miterlimit="10" d="M24.002,47.5
	C36.959,47.5,47.5,36.958,47.5,24c0-12.958-10.541-23.5-23.498-23.5C11.043,0.5,0.5,11.042,0.5,24
	C0.5,36.958,11.043,47.5,24.002,47.5z"/>
<polyline fill="none" stroke="#FFFFFF" stroke-linejoin="round" stroke-miterlimit="10" points="25.812,37.837 18.73,30.911 
	11.604,23.993 18.709,17.078 25.812,10.164 "/>
<line fill="none" stroke="#FFFFFF" stroke-linejoin="round" stroke-miterlimit="10" x1="12" y1="23.771" x2="38" y2="23.771"/>
<polyline fill="none" stroke="#FFFFFF" stroke-linejoin="round" stroke-miterlimit="10" points="25.812,37.837 18.73,30.911 
	11.604,23.993 18.709,17.078 25.812,10.164 "/>
<line fill="none" stroke="#FFFFFF" stroke-linejoin="round" stroke-miterlimit="10" x1="12" y1="23.771" x2="38" y2="23.771"/>
</svg>
